<?xml version="1.0" encoding="UTF-8"?>
<svg width="222px" height="230px" viewBox="0 0 222 230" version="1.1" xmlns="http://www.w3.org/2000/svg" xmlns:xlink="http://www.w3.org/1999/xlink">
    <title>DC15A5F3-14C4-4541-B37F-BAFE3A508F02</title>
    <g id="Page-1" stroke="none" stroke-width="1" fill="none" fill-rule="evenodd" opacity="0.336123512">
        <g id="Public-Homepage---UI-[Desktop]" transform="translate(109.000000, -1178.000000)" fill="#0B337E">
            <g id="shape-1" transform="translate(2.000000, 1293.000000) rotate(29.000000) translate(-2.000000, -1293.000000) translate(-76.000000, 1205.000000)">
                <g id="Group-13">
                    <circle id="Oval" cx="3" cy="3" r="3"></circle>
                    <circle id="Oval" cx="3" cy="13" r="3"></circle>
                    <circle id="Oval" cx="3" cy="23" r="3"></circle>
                    <circle id="Oval" cx="3" cy="33" r="3"></circle>
                    <circle id="Oval" cx="3" cy="43" r="3"></circle>
                    <circle id="Oval" cx="3" cy="53" r="3"></circle>
                    <circle id="Oval" cx="3" cy="63" r="3"></circle>
                    <circle id="Oval" cx="3" cy="73" r="3"></circle>
                    <circle id="Oval" cx="3" cy="83" r="3"></circle>
                    <circle id="Oval" cx="3" cy="93" r="3"></circle>
                    <circle id="Oval" cx="3" cy="103" r="3"></circle>
                    <circle id="Oval" cx="3" cy="113" r="3"></circle>
                    <circle id="Oval" cx="3" cy="123" r="3"></circle>
                    <circle id="Oval" cx="3" cy="133" r="3"></circle>
                    <circle id="Oval" cx="3" cy="143" r="3"></circle>
                    <circle id="Oval" cx="3" cy="153" r="3"></circle>
                    <circle id="Oval" cx="3" cy="163" r="3"></circle>
                    <circle id="Oval" cx="3" cy="173" r="3"></circle>
                </g>
                <g id="Group-13" transform="translate(10.000000, 0.000000)">
                    <circle id="Oval" cx="3" cy="3" r="3"></circle>
                    <circle id="Oval" cx="3" cy="13" r="3"></circle>
                    <circle id="Oval" cx="3" cy="23" r="3"></circle>
                    <circle id="Oval" cx="3" cy="33" r="3"></circle>
                    <circle id="Oval" cx="3" cy="43" r="3"></circle>
                    <circle id="Oval" cx="3" cy="53" r="3"></circle>
                    <circle id="Oval" cx="3" cy="63" r="3"></circle>
                    <circle id="Oval" cx="3" cy="73" r="3"></circle>
                    <circle id="Oval" cx="3" cy="83" r="3"></circle>
                    <circle id="Oval" cx="3" cy="93" r="3"></circle>
                    <circle id="Oval" cx="3" cy="103" r="3"></circle>
                    <circle id="Oval" cx="3" cy="113" r="3"></circle>
                    <circle id="Oval" cx="3" cy="123" r="3"></circle>
                    <circle id="Oval" cx="3" cy="133" r="3"></circle>
                    <circle id="Oval" cx="3" cy="143" r="3"></circle>
                    <circle id="Oval" cx="3" cy="153" r="3"></circle>
                    <circle id="Oval" cx="3" cy="163" r="3"></circle>
                    <circle id="Oval" cx="3" cy="173" r="3"></circle>
                </g>
                <g id="Group-13" transform="translate(20.000000, 0.000000)">
                    <circle id="Oval" cx="3" cy="3" r="3"></circle>
                    <circle id="Oval" cx="3" cy="13" r="3"></circle>
                    <circle id="Oval" cx="3" cy="23" r="3"></circle>
                    <circle id="Oval" cx="3" cy="33" r="3"></circle>
                    <circle id="Oval" cx="3" cy="43" r="3"></circle>
                    <circle id="Oval" cx="3" cy="53" r="3"></circle>
                    <circle id="Oval" cx="3" cy="63" r="3"></circle>
                    <circle id="Oval" cx="3" cy="73" r="3"></circle>
                    <circle id="Oval" cx="3" cy="83" r="3"></circle>
                    <circle id="Oval" cx="3" cy="93" r="3"></circle>
                    <circle id="Oval" cx="3" cy="103" r="3"></circle>
                    <circle id="Oval" cx="3" cy="113" r="3"></circle>
                    <circle id="Oval" cx="3" cy="123" r="3"></circle>
                    <circle id="Oval" cx="3" cy="133" r="3"></circle>
                    <circle id="Oval" cx="3" cy="143" r="3"></circle>
                    <circle id="Oval" cx="3" cy="153" r="3"></circle>
                    <circle id="Oval" cx="3" cy="163" r="3"></circle>
                    <circle id="Oval" cx="3" cy="173" r="3"></circle>
                </g>
                <g id="Group-13" transform="translate(30.000000, 0.000000)">
                    <circle id="Oval" cx="3" cy="3" r="3"></circle>
                    <circle id="Oval" cx="3" cy="13" r="3"></circle>
                    <circle id="Oval" cx="3" cy="23" r="3"></circle>
                    <circle id="Oval" cx="3" cy="33" r="3"></circle>
                    <circle id="Oval" cx="3" cy="43" r="3"></circle>
                    <circle id="Oval" cx="3" cy="53" r="3"></circle>
                    <circle id="Oval" cx="3" cy="63" r="3"></circle>
                    <circle id="Oval" cx="3" cy="73" r="3"></circle>
                    <circle id="Oval" cx="3" cy="83" r="3"></circle>
                    <circle id="Oval" cx="3" cy="93" r="3"></circle>
                    <circle id="Oval" cx="3" cy="103" r="3"></circle>
                    <circle id="Oval" cx="3" cy="113" r="3"></circle>
                    <circle id="Oval" cx="3" cy="123" r="3"></circle>
                    <circle id="Oval" cx="3" cy="133" r="3"></circle>
                    <circle id="Oval" cx="3" cy="143" r="3"></circle>
                    <circle id="Oval" cx="3" cy="153" r="3"></circle>
                    <circle id="Oval" cx="3" cy="163" r="3"></circle>
                    <circle id="Oval" cx="3" cy="173" r="3"></circle>
                </g>
                <g id="Group-13" transform="translate(40.000000, 0.000000)">
                    <circle id="Oval" cx="3" cy="3" r="3"></circle>
                    <circle id="Oval" cx="3" cy="13" r="3"></circle>
                    <circle id="Oval" cx="3" cy="23" r="3"></circle>
                    <circle id="Oval" cx="3" cy="33" r="3"></circle>
                    <circle id="Oval" cx="3" cy="43" r="3"></circle>
                    <circle id="Oval" cx="3" cy="53" r="3"></circle>
                    <circle id="Oval" cx="3" cy="63" r="3"></circle>
                    <circle id="Oval" cx="3" cy="73" r="3"></circle>
                    <circle id="Oval" cx="3" cy="83" r="3"></circle>
                    <circle id="Oval" cx="3" cy="93" r="3"></circle>
                    <circle id="Oval" cx="3" cy="103" r="3"></circle>
                    <circle id="Oval" cx="3" cy="113" r="3"></circle>
                    <circle id="Oval" cx="3" cy="123" r="3"></circle>
                    <circle id="Oval" cx="3" cy="133" r="3"></circle>
                    <circle id="Oval" cx="3" cy="143" r="3"></circle>
                    <circle id="Oval" cx="3" cy="153" r="3"></circle>
                    <circle id="Oval" cx="3" cy="163" r="3"></circle>
                    <circle id="Oval" cx="3" cy="173" r="3"></circle>
                </g>
                <g id="Group-13" transform="translate(50.000000, 0.000000)">
                    <circle id="Oval" cx="3" cy="3" r="3"></circle>
                    <circle id="Oval" cx="3" cy="13" r="3"></circle>
                    <circle id="Oval" cx="3" cy="23" r="3"></circle>
                    <circle id="Oval" cx="3" cy="33" r="3"></circle>
                    <circle id="Oval" cx="3" cy="43" r="3"></circle>
                    <circle id="Oval" cx="3" cy="53" r="3"></circle>
                    <circle id="Oval" cx="3" cy="63" r="3"></circle>
                    <circle id="Oval" cx="3" cy="73" r="3"></circle>
                    <circle id="Oval" cx="3" cy="83" r="3"></circle>
                    <circle id="Oval" cx="3" cy="93" r="3"></circle>
                    <circle id="Oval" cx="3" cy="103" r="3"></circle>
                    <circle id="Oval" cx="3" cy="113" r="3"></circle>
                    <circle id="Oval" cx="3" cy="123" r="3"></circle>
                    <circle id="Oval" cx="3" cy="133" r="3"></circle>
                    <circle id="Oval" cx="3" cy="143" r="3"></circle>
                    <circle id="Oval" cx="3" cy="153" r="3"></circle>
                    <circle id="Oval" cx="3" cy="163" r="3"></circle>
                    <circle id="Oval" cx="3" cy="173" r="3"></circle>
                </g>
                <g id="Group-13" transform="translate(60.000000, 0.000000)">
                    <circle id="Oval" cx="3" cy="3" r="3"></circle>
                    <circle id="Oval" cx="3" cy="13" r="3"></circle>
                    <circle id="Oval" cx="3" cy="23" r="3"></circle>
                    <circle id="Oval" cx="3" cy="33" r="3"></circle>
                    <circle id="Oval" cx="3" cy="43" r="3"></circle>
                    <circle id="Oval" cx="3" cy="53" r="3"></circle>
                    <circle id="Oval" cx="3" cy="63" r="3"></circle>
                    <circle id="Oval" cx="3" cy="73" r="3"></circle>
                    <circle id="Oval" cx="3" cy="83" r="3"></circle>
                    <circle id="Oval" cx="3" cy="93" r="3"></circle>
                    <circle id="Oval" cx="3" cy="103" r="3"></circle>
                    <circle id="Oval" cx="3" cy="113" r="3"></circle>
                    <circle id="Oval" cx="3" cy="123" r="3"></circle>
                    <circle id="Oval" cx="3" cy="133" r="3"></circle>
                    <circle id="Oval" cx="3" cy="143" r="3"></circle>
                    <circle id="Oval" cx="3" cy="153" r="3"></circle>
                    <circle id="Oval" cx="3" cy="163" r="3"></circle>
                    <circle id="Oval" cx="3" cy="173" r="3"></circle>
                </g>
                <g id="Group-13" transform="translate(70.000000, 0.000000)">
                    <circle id="Oval" cx="3" cy="3" r="3"></circle>
                    <circle id="Oval" cx="3" cy="13" r="3"></circle>
                    <circle id="Oval" cx="3" cy="23" r="3"></circle>
                    <circle id="Oval" cx="3" cy="33" r="3"></circle>
                    <circle id="Oval" cx="3" cy="43" r="3"></circle>
                    <circle id="Oval" cx="3" cy="53" r="3"></circle>
                    <circle id="Oval" cx="3" cy="63" r="3"></circle>
                    <circle id="Oval" cx="3" cy="73" r="3"></circle>
                    <circle id="Oval" cx="3" cy="83" r="3"></circle>
                    <circle id="Oval" cx="3" cy="93" r="3"></circle>
                    <circle id="Oval" cx="3" cy="103" r="3"></circle>
                    <circle id="Oval" cx="3" cy="113" r="3"></circle>
                    <circle id="Oval" cx="3" cy="123" r="3"></circle>
                    <circle id="Oval" cx="3" cy="133" r="3"></circle>
                    <circle id="Oval" cx="3" cy="143" r="3"></circle>
                    <circle id="Oval" cx="3" cy="153" r="3"></circle>
                    <circle id="Oval" cx="3" cy="163" r="3"></circle>
                    <circle id="Oval" cx="3" cy="173" r="3"></circle>
                </g>
                <g id="Group-13" transform="translate(80.000000, 0.000000)">
                    <circle id="Oval" cx="3" cy="3" r="3"></circle>
                    <circle id="Oval" cx="3" cy="13" r="3"></circle>
                    <circle id="Oval" cx="3" cy="23" r="3"></circle>
                    <circle id="Oval" cx="3" cy="33" r="3"></circle>
                    <circle id="Oval" cx="3" cy="43" r="3"></circle>
                    <circle id="Oval" cx="3" cy="53" r="3"></circle>
                    <circle id="Oval" cx="3" cy="63" r="3"></circle>
                    <circle id="Oval" cx="3" cy="73" r="3"></circle>
                    <circle id="Oval" cx="3" cy="83" r="3"></circle>
                    <circle id="Oval" cx="3" cy="93" r="3"></circle>
                    <circle id="Oval" cx="3" cy="103" r="3"></circle>
                    <circle id="Oval" cx="3" cy="113" r="3"></circle>
                    <circle id="Oval" cx="3" cy="123" r="3"></circle>
                    <circle id="Oval" cx="3" cy="133" r="3"></circle>
                    <circle id="Oval" cx="3" cy="143" r="3"></circle>
                    <circle id="Oval" cx="3" cy="153" r="3"></circle>
                    <circle id="Oval" cx="3" cy="163" r="3"></circle>
                    <circle id="Oval" cx="3" cy="173" r="3"></circle>
                </g>
                <g id="Group-13" transform="translate(150.000000, 0.000000)">
                    <circle id="Oval" cx="3" cy="3" r="3"></circle>
                    <circle id="Oval" cx="3" cy="13" r="3"></circle>
                    <circle id="Oval" cx="3" cy="23" r="3"></circle>
                    <circle id="Oval" cx="3" cy="33" r="3"></circle>
                    <circle id="Oval" cx="3" cy="43" r="3"></circle>
                    <circle id="Oval" cx="3" cy="53" r="3"></circle>
                    <circle id="Oval" cx="3" cy="63" r="3"></circle>
                    <circle id="Oval" cx="3" cy="73" r="3"></circle>
                    <circle id="Oval" cx="3" cy="83" r="3"></circle>
                    <circle id="Oval" cx="3" cy="93" r="3"></circle>
                    <circle id="Oval" cx="3" cy="103" r="3"></circle>
                    <circle id="Oval" cx="3" cy="113" r="3"></circle>
                    <circle id="Oval" cx="3" cy="123" r="3"></circle>
                    <circle id="Oval" cx="3" cy="133" r="3"></circle>
                    <circle id="Oval" cx="3" cy="143" r="3"></circle>
                    <circle id="Oval" cx="3" cy="153" r="3"></circle>
                    <circle id="Oval" cx="3" cy="163" r="3"></circle>
                    <circle id="Oval" cx="3" cy="173" r="3"></circle>
                </g>
                <g id="Group-13" transform="translate(90.000000, 0.000000)">
                    <circle id="Oval" cx="3" cy="3" r="3"></circle>
                    <circle id="Oval" cx="3" cy="13" r="3"></circle>
                    <circle id="Oval" cx="3" cy="23" r="3"></circle>
                    <circle id="Oval" cx="3" cy="33" r="3"></circle>
                    <circle id="Oval" cx="3" cy="43" r="3"></circle>
                    <circle id="Oval" cx="3" cy="53" r="3"></circle>
                    <circle id="Oval" cx="3" cy="63" r="3"></circle>
                    <circle id="Oval" cx="3" cy="73" r="3"></circle>
                    <circle id="Oval" cx="3" cy="83" r="3"></circle>
                    <circle id="Oval" cx="3" cy="93" r="3"></circle>
                    <circle id="Oval" cx="3" cy="103" r="3"></circle>
                    <circle id="Oval" cx="3" cy="113" r="3"></circle>
                    <circle id="Oval" cx="3" cy="123" r="3"></circle>
                    <circle id="Oval" cx="3" cy="133" r="3"></circle>
                    <circle id="Oval" cx="3" cy="143" r="3"></circle>
                    <circle id="Oval" cx="3" cy="153" r="3"></circle>
                    <circle id="Oval" cx="3" cy="163" r="3"></circle>
                    <circle id="Oval" cx="3" cy="173" r="3"></circle>
                </g>
                <g id="Group-13" transform="translate(100.000000, 0.000000)">
                    <circle id="Oval" cx="3" cy="3" r="3"></circle>
                    <circle id="Oval" cx="3" cy="13" r="3"></circle>
                    <circle id="Oval" cx="3" cy="23" r="3"></circle>
                    <circle id="Oval" cx="3" cy="33" r="3"></circle>
                    <circle id="Oval" cx="3" cy="43" r="3"></circle>
                    <circle id="Oval" cx="3" cy="53" r="3"></circle>
                    <circle id="Oval" cx="3" cy="63" r="3"></circle>
                    <circle id="Oval" cx="3" cy="73" r="3"></circle>
                    <circle id="Oval" cx="3" cy="83" r="3"></circle>
                    <circle id="Oval" cx="3" cy="93" r="3"></circle>
                    <circle id="Oval" cx="3" cy="103" r="3"></circle>
                    <circle id="Oval" cx="3" cy="113" r="3"></circle>
                    <circle id="Oval" cx="3" cy="123" r="3"></circle>
                    <circle id="Oval" cx="3" cy="133" r="3"></circle>
                    <circle id="Oval" cx="3" cy="143" r="3"></circle>
                    <circle id="Oval" cx="3" cy="153" r="3"></circle>
                    <circle id="Oval" cx="3" cy="163" r="3"></circle>
                    <circle id="Oval" cx="3" cy="173" r="3"></circle>
                </g>
                <g id="Group-13" transform="translate(110.000000, 0.000000)">
                    <circle id="Oval" cx="3" cy="3" r="3"></circle>
                    <circle id="Oval" cx="3" cy="13" r="3"></circle>
                    <circle id="Oval" cx="3" cy="23" r="3"></circle>
                    <circle id="Oval" cx="3" cy="33" r="3"></circle>
                    <circle id="Oval" cx="3" cy="43" r="3"></circle>
                    <circle id="Oval" cx="3" cy="53" r="3"></circle>
                    <circle id="Oval" cx="3" cy="63" r="3"></circle>
                    <circle id="Oval" cx="3" cy="73" r="3"></circle>
                    <circle id="Oval" cx="3" cy="83" r="3"></circle>
                    <circle id="Oval" cx="3" cy="93" r="3"></circle>
                    <circle id="Oval" cx="3" cy="103" r="3"></circle>
                    <circle id="Oval" cx="3" cy="113" r="3"></circle>
                    <circle id="Oval" cx="3" cy="123" r="3"></circle>
                    <circle id="Oval" cx="3" cy="133" r="3"></circle>
                    <circle id="Oval" cx="3" cy="143" r="3"></circle>
                    <circle id="Oval" cx="3" cy="153" r="3"></circle>
                    <circle id="Oval" cx="3" cy="163" r="3"></circle>
                    <circle id="Oval" cx="3" cy="173" r="3"></circle>
                </g>
                <g id="Group-13" transform="translate(120.000000, 0.000000)">
                    <circle id="Oval" cx="3" cy="3" r="3"></circle>
                    <circle id="Oval" cx="3" cy="13" r="3"></circle>
                    <circle id="Oval" cx="3" cy="23" r="3"></circle>
                    <circle id="Oval" cx="3" cy="33" r="3"></circle>
                    <circle id="Oval" cx="3" cy="43" r="3"></circle>
                    <circle id="Oval" cx="3" cy="53" r="3"></circle>
                    <circle id="Oval" cx="3" cy="63" r="3"></circle>
                    <circle id="Oval" cx="3" cy="73" r="3"></circle>
                    <circle id="Oval" cx="3" cy="83" r="3"></circle>
                    <circle id="Oval" cx="3" cy="93" r="3"></circle>
                    <circle id="Oval" cx="3" cy="103" r="3"></circle>
                    <circle id="Oval" cx="3" cy="113" r="3"></circle>
                    <circle id="Oval" cx="3" cy="123" r="3"></circle>
                    <circle id="Oval" cx="3" cy="133" r="3"></circle>
                    <circle id="Oval" cx="3" cy="143" r="3"></circle>
                    <circle id="Oval" cx="3" cy="153" r="3"></circle>
                    <circle id="Oval" cx="3" cy="163" r="3"></circle>
                    <circle id="Oval" cx="3" cy="173" r="3"></circle>
                </g>
                <g id="Group-13" transform="translate(130.000000, 0.000000)">
                    <circle id="Oval" cx="3" cy="3" r="3"></circle>
                    <circle id="Oval" cx="3" cy="13" r="3"></circle>
                    <circle id="Oval" cx="3" cy="23" r="3"></circle>
                    <circle id="Oval" cx="3" cy="33" r="3"></circle>
                    <circle id="Oval" cx="3" cy="43" r="3"></circle>
                    <circle id="Oval" cx="3" cy="53" r="3"></circle>
                    <circle id="Oval" cx="3" cy="63" r="3"></circle>
                    <circle id="Oval" cx="3" cy="73" r="3"></circle>
                    <circle id="Oval" cx="3" cy="83" r="3"></circle>
                    <circle id="Oval" cx="3" cy="93" r="3"></circle>
                    <circle id="Oval" cx="3" cy="103" r="3"></circle>
                    <circle id="Oval" cx="3" cy="113" r="3"></circle>
                    <circle id="Oval" cx="3" cy="123" r="3"></circle>
                    <circle id="Oval" cx="3" cy="133" r="3"></circle>
                    <circle id="Oval" cx="3" cy="143" r="3"></circle>
                    <circle id="Oval" cx="3" cy="153" r="3"></circle>
                    <circle id="Oval" cx="3" cy="163" r="3"></circle>
                    <circle id="Oval" cx="3" cy="173" r="3"></circle>
                </g>
                <g id="Group-13" transform="translate(140.000000, 0.000000)">
                    <circle id="Oval" cx="3" cy="3" r="3"></circle>
                    <circle id="Oval" cx="3" cy="13" r="3"></circle>
                    <circle id="Oval" cx="3" cy="23" r="3"></circle>
                    <circle id="Oval" cx="3" cy="33" r="3"></circle>
                    <circle id="Oval" cx="3" cy="43" r="3"></circle>
                    <circle id="Oval" cx="3" cy="53" r="3"></circle>
                    <circle id="Oval" cx="3" cy="63" r="3"></circle>
                    <circle id="Oval" cx="3" cy="73" r="3"></circle>
                    <circle id="Oval" cx="3" cy="83" r="3"></circle>
                    <circle id="Oval" cx="3" cy="93" r="3"></circle>
                    <circle id="Oval" cx="3" cy="103" r="3"></circle>
                    <circle id="Oval" cx="3" cy="113" r="3"></circle>
                    <circle id="Oval" cx="3" cy="123" r="3"></circle>
                    <circle id="Oval" cx="3" cy="133" r="3"></circle>
                    <circle id="Oval" cx="3" cy="143" r="3"></circle>
                    <circle id="Oval" cx="3" cy="153" r="3"></circle>
                    <circle id="Oval" cx="3" cy="163" r="3"></circle>
                    <circle id="Oval" cx="3" cy="173" r="3"></circle>
                </g>
            </g>
        </g>
    </g>
</svg>